<svg xmlns="http://www.w3.org/2000/svg" viewBox="0 0 80 80">
    <g transform="translate(-20, -40) scale(1.2)">
        <g transform="translate(0, 5)">
            <rect x="20" y="50" width="60" height="40" rx="5" fill="#000"/>
            <rect x="25" y="55" width="12" height="10" rx="2" fill="#444"/>
            <rect x="53" y="55" width="12" height="10" rx="2" fill="#444"/>
            <rect x="25" y="70" width="12" height="10" rx="2" fill="#444"/>
            <rect x="41" y="70" width="18" height="10" rx="2" fill="#444"/>
            <rect x="63" y="70" width="12" height="10" rx="2" fill="#444"/>
        </g>
        <!--
        <g transform="scale(1.8) translate(-25, -33)">
            <circle cx="41" cy="60" r="6" fill="orange"/>
            <path d="M41 54 L41 64" stroke="red" stroke-width="3" stroke-linecap="round"/>
            <path d="M35 66 L41 72 L47 66" stroke="red" stroke-width="3" stroke-linecap="round" stroke-linejoin="round"/>
        </g>
        -->
        <g transform="scale(2.8) translate(05, 11)">
            <!-- Google's mic symbol -->
            <svg xmlns="http://www.w3.org/2000/svg" height="24px" viewBox="0 -960 960 960" width="24px" fill="yellowgreen">
                <path d="M395-435q-35-35-35-85v-240q0-50 35-85t85-35q50 0 85 35t35 85v240q0 50-35 85t-85 35q-50 0-85-35Zm85-205Zm-40 520v-123q-104-14-172-93t-68-184h80q0 83 58.5 141.5T480-320q83 0 141.5-58.5T680-520h80q0 105-68 184t-172 93v123h-80Zm68.5-371.5Q520-503 520-520v-240q0-17-11.5-28.5T480-800q-17 0-28.5 11.5T440-760v240q0 17 11.5 28.5T480-480q17 0 28.5-11.5Z"/>
            </svg>
        </g>
    </g>
</svg>